<?xml version="1.0"?>
<!-- Created by MetaPost 2.02 on 2025.04.01:1241 -->
<svg version="1.1" xmlns="http://www.w3.org/2000/svg" xmlns:xlink="http://www.w3.org/1999/xlink" width="77.360167" height="76.308501" viewBox="0 0 77.360167 76.308501">
<!-- Original BoundingBox: -10.195267 -9.807800 67.164900 66.500700 -->
  <defs>
    <g transform="scale(0.009963,0.009963)" id="GLYPHcmr10_65">
      <path style="fill-rule: evenodd;" d="M398.000000 -696.000000C393.000000 -709.000000,391.000000 -716.000000,375.000000 -716.000000C359.000000 -716.000000,356.000000 -710.000000,351.000000 -696.000000L144.000000 -98.000000C126.000000 -47.000000,86.000000 -32.000000,32.000000 -31.000000L32.000000 -0.000000C55.000000 -1.000000,98.000000 -3.000000,134.000000 -3.000000C165.000000 -3.000000,217.000000 -1.000000,249.000000 -0.000000L249.000000 -31.000000C199.000000 -31.000000,174.000000 -56.000000,174.000000 -82.000000C174.000000 -85.000000,175.000000 -95.000000,176.000000 -97.000000L222.000000 -228.000000L469.000000 -228.000000L522.000000 -75.000000C523.000000 -71.000000,525.000000 -65.000000,525.000000 -61.000000C525.000000 -31.000000,469.000000 -31.000000,442.000000 -31.000000L442.000000 -0.000000C478.000000 -3.000000,548.000000 -3.000000,586.000000 -3.000000C629.000000 -3.000000,675.000000 -2.000000,717.000000 -0.000000L717.000000 -31.000000L699.000000 -31.000000C639.000000 -31.000000,625.000000 -38.000000,614.000000 -71.000000M345.000000 -584.000000L458.000000 -259.000000L233.000000 -259.000000"></path>
    </g>
    <g transform="scale(0.009963,0.009963)" id="GLYPHcmr10_66">
      <path style="fill-rule: evenodd;" d="M222.000000 -366.000000L222.000000 -612.000000C222.000000 -645.000000,224.000000 -652.000000,271.000000 -652.000000L395.000000 -652.000000C492.000000 -652.000000,527.000000 -567.000000,527.000000 -514.000000C527.000000 -450.000000,478.000000 -366.000000,367.000000 -366.000000M458.000000 -357.000000C555.000000 -376.000000,624.000000 -440.000000,624.000000 -514.000000C624.000000 -601.000000,532.000000 -683.000000,402.000000 -683.000000L36.000000 -683.000000L36.000000 -652.000000L60.000000 -652.000000C137.000000 -652.000000,139.000000 -641.000000,139.000000 -605.000000L139.000000 -78.000000C139.000000 -42.000000,137.000000 -31.000000,60.000000 -31.000000L36.000000 -31.000000L36.000000 -0.000000L428.000000 -0.000000C561.000000 -0.000000,651.000000 -89.000000,651.000000 -183.000000C651.000000 -270.000000,569.000000 -345.000000,458.000000 -357.000000M396.000000 -31.000000L271.000000 -31.000000C224.000000 -31.000000,222.000000 -38.000000,222.000000 -71.000000L222.000000 -344.000000L410.000000 -344.000000C509.000000 -344.000000,551.000000 -251.000000,551.000000 -184.000000C551.000000 -113.000000,499.000000 -31.000000,396.000000 -31.000000"></path>
    </g>
    <g transform="scale(0.009963,0.009963)" id="GLYPHcmr10_67">
      <path style="fill-rule: evenodd;" d="M56.000000 -342.000000C56.000000 -135.000000,218.000000 22.000000,404.000000 22.000000C567.000000 22.000000,665.000000 -117.000000,665.000000 -233.000000C665.000000 -243.000000,665.000000 -250.000000,652.000000 -250.000000C641.000000 -250.000000,641.000000 -244.000000,640.000000 -234.000000C632.000000 -91.000000,525.000000 -9.000000,416.000000 -9.000000C355.000000 -9.000000,159.000000 -43.000000,159.000000 -341.000000C159.000000 -640.000000,354.000000 -674.000000,415.000000 -674.000000C524.000000 -674.000000,613.000000 -583.000000,633.000000 -437.000000C635.000000 -423.000000,635.000000 -420.000000,649.000000 -420.000000C665.000000 -420.000000,665.000000 -423.000000,665.000000 -444.000000L665.000000 -681.000000C665.000000 -698.000000,665.000000 -705.000000,654.000000 -705.000000C650.000000 -705.000000,646.000000 -705.000000,638.000000 -693.000000L588.000000 -619.000000C551.000000 -655.000000,500.000000 -705.000000,404.000000 -705.000000C217.000000 -705.000000,56.000000 -546.000000,56.000000 -342.000000"></path>
    </g>
    <g transform="scale(0.009963,0.009963)" id="GLYPHcmr10_68">
      <path style="fill-rule: evenodd;" d="M35.000000 -683.000000L35.000000 -652.000000L59.000000 -652.000000C136.000000 -652.000000,138.000000 -641.000000,138.000000 -605.000000L138.000000 -78.000000C138.000000 -42.000000,136.000000 -31.000000,59.000000 -31.000000L35.000000 -31.000000L35.000000 -0.000000L401.000000 -0.000000C569.000000 -0.000000,707.000000 -148.000000,707.000000 -336.000000C707.000000 -526.000000,572.000000 -683.000000,401.000000 -683.000000M273.000000 -31.000000C226.000000 -31.000000,224.000000 -38.000000,224.000000 -71.000000L224.000000 -612.000000C224.000000 -645.000000,226.000000 -652.000000,273.000000 -652.000000L373.000000 -652.000000C435.000000 -652.000000,504.000000 -630.000000,555.000000 -559.000000C598.000000 -500.000000,607.000000 -414.000000,607.000000 -336.000000C607.000000 -225.000000,588.000000 -165.000000,552.000000 -116.000000C532.000000 -89.000000,475.000000 -31.000000,374.000000 -31.000000"></path>
    </g>
    <g transform="scale(0.009963,0.009963)" id="GLYPHcmr10_69">
      <path style="fill-rule: evenodd;" d="M136.000000 -78.000000C136.000000 -42.000000,134.000000 -31.000000,57.000000 -31.000000L33.000000 -31.000000L33.000000 -0.000000L610.000000 -0.000000L652.000000 -258.000000L627.000000 -258.000000C602.000000 -104.000000,579.000000 -31.000000,407.000000 -31.000000L274.000000 -31.000000C227.000000 -31.000000,225.000000 -38.000000,225.000000 -71.000000L225.000000 -338.000000L315.000000 -338.000000C412.000000 -338.000000,423.000000 -306.000000,423.000000 -221.000000L448.000000 -221.000000L448.000000 -486.000000L423.000000 -486.000000C423.000000 -400.000000,412.000000 -369.000000,315.000000 -369.000000L225.000000 -369.000000L225.000000 -609.000000C225.000000 -642.000000,227.000000 -649.000000,274.000000 -649.000000L403.000000 -649.000000C556.000000 -649.000000,583.000000 -594.000000,599.000000 -455.000000L624.000000 -455.000000L596.000000 -680.000000L33.000000 -680.000000L33.000000 -649.000000L57.000000 -649.000000C134.000000 -649.000000,136.000000 -638.000000,136.000000 -602.000000"></path>
    </g>
    <g transform="scale(0.009963,0.009963)" id="GLYPHcmr10_70">
      <path style="fill-rule: evenodd;" d="M582.000000 -680.000000L33.000000 -680.000000L33.000000 -649.000000L57.000000 -649.000000C134.000000 -649.000000,136.000000 -638.000000,136.000000 -602.000000L136.000000 -78.000000C136.000000 -42.000000,134.000000 -31.000000,57.000000 -31.000000L33.000000 -31.000000L33.000000 -0.000000C68.000000 -3.000000,146.000000 -3.000000,185.000000 -3.000000C226.000000 -3.000000,317.000000 -3.000000,353.000000 -0.000000L353.000000 -31.000000L320.000000 -31.000000C225.000000 -31.000000,225.000000 -44.000000,225.000000 -79.000000L225.000000 -325.000000L311.000000 -325.000000C407.000000 -325.000000,417.000000 -293.000000,417.000000 -208.000000L442.000000 -208.000000L442.000000 -473.000000L417.000000 -473.000000C417.000000 -389.000000,407.000000 -356.000000,311.000000 -356.000000L225.000000 -356.000000L225.000000 -609.000000C225.000000 -642.000000,227.000000 -649.000000,274.000000 -649.000000L394.000000 -649.000000C544.000000 -649.000000,569.000000 -593.000000,585.000000 -455.000000L610.000000 -455.000000"></path>
    </g>
    <g transform="scale(0.009963,0.009963)" id="GLYPHcmr10_71">
      <path style="fill-rule: evenodd;" d="M593.000000 -63.000000C606.000000 -41.000000,646.000000 -1.000000,657.000000 -1.000000C666.000000 -1.000000,666.000000 -9.000000,666.000000 -24.000000L666.000000 -198.000000C666.000000 -237.000000,670.000000 -242.000000,735.000000 -242.000000L735.000000 -273.000000C698.000000 -272.000000,643.000000 -270.000000,613.000000 -270.000000C573.000000 -270.000000,488.000000 -270.000000,452.000000 -273.000000L452.000000 -242.000000L484.000000 -242.000000C574.000000 -242.000000,577.000000 -231.000000,577.000000 -194.000000L577.000000 -130.000000C577.000000 -18.000000,450.000000 -9.000000,422.000000 -9.000000C357.000000 -9.000000,159.000000 -44.000000,159.000000 -342.000000C159.000000 -641.000000,356.000000 -674.000000,416.000000 -674.000000C523.000000 -674.000000,614.000000 -584.000000,634.000000 -437.000000C636.000000 -423.000000,636.000000 -420.000000,650.000000 -420.000000C666.000000 -420.000000,666.000000 -423.000000,666.000000 -444.000000L666.000000 -681.000000C666.000000 -698.000000,666.000000 -705.000000,655.000000 -705.000000C651.000000 -705.000000,647.000000 -705.000000,639.000000 -693.000000L589.000000 -619.000000C557.000000 -651.000000,503.000000 -705.000000,404.000000 -705.000000C218.000000 -705.000000,56.000000 -547.000000,56.000000 -342.000000C56.000000 -137.000000,216.000000 22.000000,406.000000 22.000000C479.000000 22.000000,559.000000 -4.000000,593.000000 -63.000000"></path>
    </g>
    <g transform="scale(0.009963,0.009963)" id="GLYPHcmr10_72">
      <path style="fill-rule: evenodd;" d="M613.000000 -605.000000C613.000000 -641.000000,615.000000 -652.000000,692.000000 -652.000000L716.000000 -652.000000L716.000000 -683.000000C681.000000 -680.000000,607.000000 -680.000000,569.000000 -680.000000C531.000000 -680.000000,456.000000 -680.000000,421.000000 -683.000000L421.000000 -652.000000L445.000000 -652.000000C522.000000 -652.000000,524.000000 -641.000000,524.000000 -605.000000L524.000000 -371.000000L225.000000 -371.000000L225.000000 -605.000000C225.000000 -641.000000,227.000000 -652.000000,304.000000 -652.000000L328.000000 -652.000000L328.000000 -683.000000C293.000000 -680.000000,219.000000 -680.000000,181.000000 -680.000000C143.000000 -680.000000,68.000000 -680.000000,33.000000 -683.000000L33.000000 -652.000000L57.000000 -652.000000C134.000000 -652.000000,136.000000 -641.000000,136.000000 -605.000000L136.000000 -78.000000C136.000000 -42.000000,134.000000 -31.000000,57.000000 -31.000000L33.000000 -31.000000L33.000000 -0.000000C68.000000 -3.000000,142.000000 -3.000000,180.000000 -3.000000C218.000000 -3.000000,293.000000 -3.000000,328.000000 -0.000000L328.000000 -31.000000L304.000000 -31.000000C227.000000 -31.000000,225.000000 -42.000000,225.000000 -78.000000L225.000000 -340.000000L524.000000 -340.000000L524.000000 -78.000000C524.000000 -42.000000,522.000000 -31.000000,445.000000 -31.000000L421.000000 -31.000000L421.000000 -0.000000C456.000000 -3.000000,530.000000 -3.000000,568.000000 -3.000000C606.000000 -3.000000,681.000000 -3.000000,716.000000 -0.000000L716.000000 -31.000000L692.000000 -31.000000C615.000000 -31.000000,613.000000 -42.000000,613.000000 -78.000000"></path>
    </g>
    <g transform="scale(0.009963,0.009963)" id="GLYPHcmr10_79">
      <path style="fill-rule: evenodd;" d="M721.000000 -339.000000C721.000000 -543.000000,570.000000 -705.000000,388.000000 -705.000000C209.000000 -705.000000,56.000000 -545.000000,56.000000 -339.000000C56.000000 -134.000000,210.000000 22.000000,388.000000 22.000000C570.000000 22.000000,721.000000 -137.000000,721.000000 -339.000000M389.000000 -4.000000C293.000000 -4.000000,159.000000 -92.000000,159.000000 -353.000000C159.000000 -612.000000,305.000000 -680.000000,388.000000 -680.000000C475.000000 -680.000000,618.000000 -609.000000,618.000000 -353.000000C618.000000 -88.000000,481.000000 -4.000000,389.000000 -4.000000"></path>
    </g>
  </defs>
  <path d="M66.888167 38.154250L38.541717 9.807800L10.195267 38.154250L38.541717 66.500700Z" style="stroke:rgb(0.000000%,0.000000%,0.000000%); stroke-width: 0.500000;stroke-linecap: round;stroke-linejoin: round;stroke-miterlimit: 10.000000;fill: none;"></path>
  <path d="M66.888167 9.807800L10.195267 9.807800L10.195267 66.500700L66.888167 66.500700Z" style="stroke:rgb(0.000000%,0.000000%,0.000000%); stroke-width: 0.500000;stroke-linecap: round;stroke-linejoin: round;stroke-miterlimit: 10.000000;fill: none;"></path>
  <path d="M66.888167 38.154250L10.195267 38.154250" style="stroke:rgb(0.000000%,0.000000%,0.000000%); stroke-width: 0.500000;stroke-linecap: round;stroke-linejoin: round;stroke-miterlimit: 10.000000;fill: none;"></path>
  <path d="M38.541717 9.807800L38.541717 66.500700" style="stroke:rgb(0.000000%,0.000000%,0.000000%); stroke-width: 0.500000;stroke-linecap: round;stroke-linejoin: round;stroke-miterlimit: 10.000000;fill: none;"></path>
  <path d="M66.888167 38.154250C66.888167 22.498938,54.197029 9.807800,38.541717 9.807800C22.886405 9.807800,10.195267 22.498938,10.195267 38.154250C10.195267 53.809562,22.886405 66.500700,38.541717 66.500700C54.197029 66.500700,66.888167 53.809562,66.888167 38.154250Z" style="stroke:rgb(0.000000%,0.000000%,0.000000%); stroke-width: 0.500000;stroke-linecap: round;stroke-linejoin: round;stroke-miterlimit: 10.000000;fill: none;"></path>
  <g transform="translate(69.888167 41.558150)" style="fill: rgb(0.000000%,0.000000%,0.000000%);">
    <use xlink:href="#GLYPHcmr10_65"></use>
  </g>
  <g transform="translate(35.013267 6.807800)" style="fill: rgb(0.000000%,0.000000%,0.000000%);">
    <use xlink:href="#GLYPHcmr10_66"></use>
  </g>
  <g transform="translate(0.000000 41.558150)" style="fill: rgb(0.000000%,0.000000%,0.000000%);">
    <use xlink:href="#GLYPHcmr10_67"></use>
  </g>
  <g transform="translate(34.736533 76.308501)" style="fill: rgb(0.000000%,0.000000%,0.000000%);">
    <use xlink:href="#GLYPHcmr10_68"></use>
  </g>
  <g transform="translate(68.988167 7.707800)" style="fill: rgb(0.000000%,0.000000%,0.000000%);">
    <use xlink:href="#GLYPHcmr10_69"></use>
  </g>
  <g transform="translate(1.591849 7.707800)" style="fill: rgb(0.000000%,0.000000%,0.000000%);">
    <use xlink:href="#GLYPHcmr10_70"></use>
  </g>
  <g transform="translate(0.277335 75.408501)" style="fill: rgb(0.000000%,0.000000%,0.000000%);">
    <use xlink:href="#GLYPHcmr10_71"></use>
  </g>
  <g transform="translate(68.988167 75.408501)" style="fill: rgb(0.000000%,0.000000%,0.000000%);">
    <use xlink:href="#GLYPHcmr10_72"></use>
  </g>
  <g transform="translate(28.692968 47.062051)" style="fill: rgb(0.000000%,0.000000%,0.000000%);">
    <use xlink:href="#GLYPHcmr10_79"></use>
  </g>
</svg>
