<?xml version="1.0"?>
<!-- Created by MetaPost 2.02 on 2025.04.01:1244 -->
<svg version="1.1" xmlns="http://www.w3.org/2000/svg" xmlns:xlink="http://www.w3.org/1999/xlink" width="76.113649" height="75.408501" viewBox="0 0 76.113649 75.408501">
<!-- Original BoundingBox: -9.848749 -9.807800 66.264900 65.600700 -->
  <defs>
    <g transform="scale(0.009963,0.009963)" id="GLYPHcmr10_65">
      <path style="fill-rule: evenodd;" d="M398.000000 -696.000000C393.000000 -709.000000,391.000000 -716.000000,375.000000 -716.000000C359.000000 -716.000000,356.000000 -710.000000,351.000000 -696.000000L144.000000 -98.000000C126.000000 -47.000000,86.000000 -32.000000,32.000000 -31.000000L32.000000 -0.000000C55.000000 -1.000000,98.000000 -3.000000,134.000000 -3.000000C165.000000 -3.000000,217.000000 -1.000000,249.000000 -0.000000L249.000000 -31.000000C199.000000 -31.000000,174.000000 -56.000000,174.000000 -82.000000C174.000000 -85.000000,175.000000 -95.000000,176.000000 -97.000000L222.000000 -228.000000L469.000000 -228.000000L522.000000 -75.000000C523.000000 -71.000000,525.000000 -65.000000,525.000000 -61.000000C525.000000 -31.000000,469.000000 -31.000000,442.000000 -31.000000L442.000000 -0.000000C478.000000 -3.000000,548.000000 -3.000000,586.000000 -3.000000C629.000000 -3.000000,675.000000 -2.000000,717.000000 -0.000000L717.000000 -31.000000L699.000000 -31.000000C639.000000 -31.000000,625.000000 -38.000000,614.000000 -71.000000M345.000000 -584.000000L458.000000 -259.000000L233.000000 -259.000000"></path>
    </g>
    <g transform="scale(0.009963,0.009963)" id="GLYPHcmr10_66">
      <path style="fill-rule: evenodd;" d="M222.000000 -366.000000L222.000000 -612.000000C222.000000 -645.000000,224.000000 -652.000000,271.000000 -652.000000L395.000000 -652.000000C492.000000 -652.000000,527.000000 -567.000000,527.000000 -514.000000C527.000000 -450.000000,478.000000 -366.000000,367.000000 -366.000000M458.000000 -357.000000C555.000000 -376.000000,624.000000 -440.000000,624.000000 -514.000000C624.000000 -601.000000,532.000000 -683.000000,402.000000 -683.000000L36.000000 -683.000000L36.000000 -652.000000L60.000000 -652.000000C137.000000 -652.000000,139.000000 -641.000000,139.000000 -605.000000L139.000000 -78.000000C139.000000 -42.000000,137.000000 -31.000000,60.000000 -31.000000L36.000000 -31.000000L36.000000 -0.000000L428.000000 -0.000000C561.000000 -0.000000,651.000000 -89.000000,651.000000 -183.000000C651.000000 -270.000000,569.000000 -345.000000,458.000000 -357.000000M396.000000 -31.000000L271.000000 -31.000000C224.000000 -31.000000,222.000000 -38.000000,222.000000 -71.000000L222.000000 -344.000000L410.000000 -344.000000C509.000000 -344.000000,551.000000 -251.000000,551.000000 -184.000000C551.000000 -113.000000,499.000000 -31.000000,396.000000 -31.000000"></path>
    </g>
    <g transform="scale(0.009963,0.009963)" id="GLYPHcmr10_67">
      <path style="fill-rule: evenodd;" d="M56.000000 -342.000000C56.000000 -135.000000,218.000000 22.000000,404.000000 22.000000C567.000000 22.000000,665.000000 -117.000000,665.000000 -233.000000C665.000000 -243.000000,665.000000 -250.000000,652.000000 -250.000000C641.000000 -250.000000,641.000000 -244.000000,640.000000 -234.000000C632.000000 -91.000000,525.000000 -9.000000,416.000000 -9.000000C355.000000 -9.000000,159.000000 -43.000000,159.000000 -341.000000C159.000000 -640.000000,354.000000 -674.000000,415.000000 -674.000000C524.000000 -674.000000,613.000000 -583.000000,633.000000 -437.000000C635.000000 -423.000000,635.000000 -420.000000,649.000000 -420.000000C665.000000 -420.000000,665.000000 -423.000000,665.000000 -444.000000L665.000000 -681.000000C665.000000 -698.000000,665.000000 -705.000000,654.000000 -705.000000C650.000000 -705.000000,646.000000 -705.000000,638.000000 -693.000000L588.000000 -619.000000C551.000000 -655.000000,500.000000 -705.000000,404.000000 -705.000000C217.000000 -705.000000,56.000000 -546.000000,56.000000 -342.000000"></path>
    </g>
    <g transform="scale(0.009963,0.009963)" id="GLYPHcmr10_68">
      <path style="fill-rule: evenodd;" d="M35.000000 -683.000000L35.000000 -652.000000L59.000000 -652.000000C136.000000 -652.000000,138.000000 -641.000000,138.000000 -605.000000L138.000000 -78.000000C138.000000 -42.000000,136.000000 -31.000000,59.000000 -31.000000L35.000000 -31.000000L35.000000 -0.000000L401.000000 -0.000000C569.000000 -0.000000,707.000000 -148.000000,707.000000 -336.000000C707.000000 -526.000000,572.000000 -683.000000,401.000000 -683.000000M273.000000 -31.000000C226.000000 -31.000000,224.000000 -38.000000,224.000000 -71.000000L224.000000 -612.000000C224.000000 -645.000000,226.000000 -652.000000,273.000000 -652.000000L373.000000 -652.000000C435.000000 -652.000000,504.000000 -630.000000,555.000000 -559.000000C598.000000 -500.000000,607.000000 -414.000000,607.000000 -336.000000C607.000000 -225.000000,588.000000 -165.000000,552.000000 -116.000000C532.000000 -89.000000,475.000000 -31.000000,374.000000 -31.000000"></path>
    </g>
    <g transform="scale(0.009963,0.009963)" id="GLYPHcmr10_79">
      <path style="fill-rule: evenodd;" d="M721.000000 -339.000000C721.000000 -543.000000,570.000000 -705.000000,388.000000 -705.000000C209.000000 -705.000000,56.000000 -545.000000,56.000000 -339.000000C56.000000 -134.000000,210.000000 22.000000,388.000000 22.000000C570.000000 22.000000,721.000000 -137.000000,721.000000 -339.000000M389.000000 -4.000000C293.000000 -4.000000,159.000000 -92.000000,159.000000 -353.000000C159.000000 -612.000000,305.000000 -680.000000,388.000000 -680.000000C475.000000 -680.000000,618.000000 -609.000000,618.000000 -353.000000C618.000000 -88.000000,481.000000 -4.000000,389.000000 -4.000000"></path>
    </g>
    <g transform="scale(0.009963,0.009963)" id="GLYPHcmr10_81">
      <path style="fill-rule: evenodd;" d="M322.000000 -16.000000C268.000000 -36.000000,156.000000 -109.000000,156.000000 -339.000000C156.000000 -599.000000,296.000000 -680.000000,388.000000 -680.000000C485.000000 -680.000000,621.000000 -594.000000,621.000000 -339.000000C621.000000 -261.000000,609.000000 -120.000000,503.000000 -42.000000C481.000000 -98.000000,449.000000 -148.000000,390.000000 -148.000000C339.000000 -148.000000,308.000000 -105.000000,308.000000 -64.000000C308.000000 -37.000000,321.000000 -18.000000,322.000000 -16.000000M477.000000 -26.000000C443.000000 -7.000000,411.000000 -3.000000,389.000000 -3.000000C338.000000 -3.000000,330.000000 -49.000000,330.000000 -64.000000C330.000000 -93.000000,351.000000 -126.000000,390.000000 -126.000000C444.000000 -126.000000,466.000000 -84.000000,477.000000 -26.000000M518.000000 -7.000000C636.000000 -60.000000,721.000000 -188.000000,721.000000 -339.000000C721.000000 -543.000000,570.000000 -705.000000,388.000000 -705.000000C209.000000 -705.000000,56.000000 -545.000000,56.000000 -339.000000C56.000000 -137.000000,207.000000 22.000000,389.000000 22.000000C420.000000 22.000000,455.000000 16.000000,484.000000 7.000000C499.000000 102.000000,513.000000 194.000000,606.000000 194.000000C708.000000 194.000000,727.000000 61.000000,727.000000 10.000000C727.000000 -0.000000,727.000000 -11.000000,716.000000 -11.000000C707.000000 -11.000000,706.000000 -3.000000,705.000000 7.000000C699.000000 61.000000,657.000000 91.000000,614.000000 91.000000C567.000000 91.000000,542.000000 57.000000,518.000000 -7.000000"></path>
    </g>
  </defs>
  <path d="M9.848749 65.600700L66.541649 65.600700L66.541649 8.907800Z" style="stroke:rgb(0.000000%,0.000000%,0.000000%); stroke-width: 0.500000;stroke-linecap: round;stroke-linejoin: round;stroke-miterlimit: 10.000000;fill: none;"></path>
  <path d="M49.936683 25.512766L49.936683 65.600700" style="stroke:rgb(0.000000%,0.000000%,0.000000%); stroke-width: 0.500000;stroke-linecap: round;stroke-linejoin: round;stroke-miterlimit: 10.000000;fill: none;"></path>
  <path d="M66.541649 65.600700C66.507551 50.571611,60.539743 36.164048,49.936683 25.512766C46.440780 22.000964,42.492145 18.971070,38.195199 16.503209" style="stroke:rgb(0.000000%,0.000000%,0.000000%); stroke-width: 0.500000;stroke-linecap: round;stroke-linejoin: round;stroke-miterlimit: 10.000000;fill: none;"></path>
  <g transform="translate(0.000000 74.508501)" style="fill: rgb(0.000000%,0.000000%,0.000000%);">
    <use xlink:href="#GLYPHcmr10_79"></use>
  </g>
  <g transform="translate(68.641649 74.508501)" style="fill: rgb(0.000000%,0.000000%,0.000000%);">
    <use xlink:href="#GLYPHcmr10_65"></use>
  </g>
  <g transform="translate(68.641649 6.807800)" style="fill: rgb(0.000000%,0.000000%,0.000000%);">
    <use xlink:href="#GLYPHcmr10_66"></use>
  </g>
  <g transform="translate(39.741416 28.916666)" style="fill: rgb(0.000000%,0.000000%,0.000000%);">
    <use xlink:href="#GLYPHcmr10_67"></use>
  </g>
  <g transform="translate(46.131499 75.408501)" style="fill: rgb(0.000000%,0.000000%,0.000000%);">
    <use xlink:href="#GLYPHcmr10_68"></use>
  </g>
  <g transform="translate(27.446450 18.938519)" style="fill: rgb(0.000000%,0.000000%,0.000000%);">
    <use xlink:href="#GLYPHcmr10_81"></use>
  </g>
</svg>
