<?xml version="1.0" encoding="UTF-8"?>
<svg width="16" height="16" xmlns="http://www.w3.org/2000/svg">
	<path d="M0.5,0.5 L0.5,15.5 L12,15.5 Q15.5,15.5 15.5,12 L15.5,4 Q15.5,0.5 12,0.5 z" fill="#a04" stroke="#f06" stroke-width="1" />
	<!--<g style="font-family: serif; font-size: 11px; font-weight: bold; fill: #fff;">
		<text x="1" y="12">L</text><text x="7" y="12">C</text>
	</g>-->
	<path d="M 7.78,12 L 1.25,12 L 1.25,11.63 C 1.65,11.63 1.91,11.61 2.03,11.56 C 2.16,11.52 2.25,11.44 2.29,11.32 C 2.34,11.21 2.36,10.97 2.36,10.6 L 2.36,6.11 C 2.36,5.78 2.34,5.55 2.3,5.42 C 2.26,5.28 2.16,5.19 2.02,5.15 C 1.87,5.11 1.61,5.08 1.25,5.08 L 1.25,4.72 L 5.125,4.72 L 5.125,5.08 C 4.67,5.08 4.38,5.11 4.24,5.16 C 4.1,5.22 4.01,5.3 3.97,5.43 C 3.93,5.55 3.91,5.78 3.91,6.11 L 3.91,10.95 C 3.91,11.17 3.94,11.32 4.02,11.39 C 4.09,11.47 4.25,11.51 4.5,11.51 L 5.96,11.51 C 6.46,11.51 6.83,11.37 7.06,11.09 C 7.29,10.81 7.41,10.38 7.41,9.79 L 7.78,9.79 L 7.78,12 M 11.36,12.17 C 10.19,12.17 9.26,11.82 8.55,11.12 C 7.85,10.43 7.49,9.5 7.49,8.36 C 7.49,7.27 7.85,6.36 8.56,5.64 C 9.27,4.92 10.21,4.56 11.37,4.56 C 11.81,4.56 12.37,4.63 13.03,4.78 C 13.24,4.83 13.37,4.85 13.41,4.85 C 13.56,4.85 13.65,4.75 13.69,4.56 L 14.04,4.56 L 14.04,6.98 L 13.71,6.98 C 13.57,6.37 13.29,5.89 12.89,5.56 C 12.48,5.23 11.99,5.06 11.41,5.06 C 10.72,5.06 10.18,5.37 9.79,6 C 9.4,6.62 9.2,7.41 9.2,8.36 C 9.2,9.31 9.44,10.06 9.91,10.6 C 10.37,11.14 11.02,11.41 11.84,11.41 C 12.73,11.41 13.52,11.06 14.20,10.36 L 14.43,10.69 C 13.61,11.67 12.58,12.17 11.36,12.17" fill="#fff" />
</svg>
