<?xml version="1.0"?>
<!-- Created by MetaPost 2.000 on 2023.02.20:1207 -->
<svg xmlns="http://www.w3.org/2000/svg" xmlns:xlink="http://www.w3.org/1999/xlink" viewBox="0 0 177 168" version="1.1">
<!-- Original BoundingBox: -39.164382 -36.554700 138.031025 131.793103 -->
  <defs>
    <g transform="scale(0.009963,0.009963)" id="GLYPHcmr10_65">
      <path style="fill-rule: evenodd;" d="M398.000000 -696.000000C393.000000 -709.000000,391.000000 -716.000000,375.000000 -716.000000C359.000000 -716.000000,356.000000 -710.000000,351.000000 -696.000000L144.000000 -98.000000C126.000000 -47.000000,86.000000 -32.000000,32.000000 -31.000000L32.000000 -0.000000C55.000000 -1.000000,98.000000 -3.000000,134.000000 -3.000000C165.000000 -3.000000,217.000000 -1.000000,249.000000 -0.000000L249.000000 -31.000000C199.000000 -31.000000,174.000000 -56.000000,174.000000 -82.000000C174.000000 -85.000000,175.000000 -95.000000,176.000000 -97.000000L222.000000 -228.000000L469.000000 -228.000000L522.000000 -75.000000C523.000000 -71.000000,525.000000 -65.000000,525.000000 -61.000000C525.000000 -31.000000,469.000000 -31.000000,442.000000 -31.000000L442.000000 -0.000000C478.000000 -3.000000,548.000000 -3.000000,586.000000 -3.000000C629.000000 -3.000000,675.000000 -2.000000,717.000000 -0.000000L717.000000 -31.000000L699.000000 -31.000000C639.000000 -31.000000,625.000000 -38.000000,614.000000 -71.000000M345.000000 -584.000000L458.000000 -259.000000L233.000000 -259.000000"></path>
    </g>
    <g transform="scale(0.009963,0.009963)" id="GLYPHcmr10_66">
      <path style="fill-rule: evenodd;" d="M222.000000 -366.000000L222.000000 -612.000000C222.000000 -645.000000,224.000000 -652.000000,271.000000 -652.000000L395.000000 -652.000000C492.000000 -652.000000,527.000000 -567.000000,527.000000 -514.000000C527.000000 -450.000000,478.000000 -366.000000,367.000000 -366.000000M458.000000 -357.000000C555.000000 -376.000000,624.000000 -440.000000,624.000000 -514.000000C624.000000 -601.000000,532.000000 -683.000000,402.000000 -683.000000L36.000000 -683.000000L36.000000 -652.000000L60.000000 -652.000000C137.000000 -652.000000,139.000000 -641.000000,139.000000 -605.000000L139.000000 -78.000000C139.000000 -42.000000,137.000000 -31.000000,60.000000 -31.000000L36.000000 -31.000000L36.000000 -0.000000L428.000000 -0.000000C561.000000 -0.000000,651.000000 -89.000000,651.000000 -183.000000C651.000000 -270.000000,569.000000 -345.000000,458.000000 -357.000000M396.000000 -31.000000L271.000000 -31.000000C224.000000 -31.000000,222.000000 -38.000000,222.000000 -71.000000L222.000000 -344.000000L410.000000 -344.000000C509.000000 -344.000000,551.000000 -251.000000,551.000000 -184.000000C551.000000 -113.000000,499.000000 -31.000000,396.000000 -31.000000"></path>
    </g>
    <g transform="scale(0.009963,0.009963)" id="GLYPHcmr10_67">
      <path style="fill-rule: evenodd;" d="M56.000000 -342.000000C56.000000 -135.000000,218.000000 22.000000,404.000000 22.000000C567.000000 22.000000,665.000000 -117.000000,665.000000 -233.000000C665.000000 -243.000000,665.000000 -250.000000,652.000000 -250.000000C641.000000 -250.000000,641.000000 -244.000000,640.000000 -234.000000C632.000000 -91.000000,525.000000 -9.000000,416.000000 -9.000000C355.000000 -9.000000,159.000000 -43.000000,159.000000 -341.000000C159.000000 -640.000000,354.000000 -674.000000,415.000000 -674.000000C524.000000 -674.000000,613.000000 -583.000000,633.000000 -437.000000C635.000000 -423.000000,635.000000 -420.000000,649.000000 -420.000000C665.000000 -420.000000,665.000000 -423.000000,665.000000 -444.000000L665.000000 -681.000000C665.000000 -698.000000,665.000000 -705.000000,654.000000 -705.000000C650.000000 -705.000000,646.000000 -705.000000,638.000000 -693.000000L588.000000 -619.000000C551.000000 -655.000000,500.000000 -705.000000,404.000000 -705.000000C217.000000 -705.000000,56.000000 -546.000000,56.000000 -342.000000"></path>
    </g>
    <g transform="scale(0.009963,0.009963)" id="GLYPHcmr10_68">
      <path style="fill-rule: evenodd;" d="M35.000000 -683.000000L35.000000 -652.000000L59.000000 -652.000000C136.000000 -652.000000,138.000000 -641.000000,138.000000 -605.000000L138.000000 -78.000000C138.000000 -42.000000,136.000000 -31.000000,59.000000 -31.000000L35.000000 -31.000000L35.000000 -0.000000L401.000000 -0.000000C569.000000 -0.000000,707.000000 -148.000000,707.000000 -336.000000C707.000000 -526.000000,572.000000 -683.000000,401.000000 -683.000000M273.000000 -31.000000C226.000000 -31.000000,224.000000 -38.000000,224.000000 -71.000000L224.000000 -612.000000C224.000000 -645.000000,226.000000 -652.000000,273.000000 -652.000000L373.000000 -652.000000C435.000000 -652.000000,504.000000 -630.000000,555.000000 -559.000000C598.000000 -500.000000,607.000000 -414.000000,607.000000 -336.000000C607.000000 -225.000000,588.000000 -165.000000,552.000000 -116.000000C532.000000 -89.000000,475.000000 -31.000000,374.000000 -31.000000"></path>
    </g>
    <g transform="scale(0.009963,0.009963)" id="GLYPHcmr10_69">
      <path style="fill-rule: evenodd;" d="M136.000000 -78.000000C136.000000 -42.000000,134.000000 -31.000000,57.000000 -31.000000L33.000000 -31.000000L33.000000 -0.000000L610.000000 -0.000000L652.000000 -258.000000L627.000000 -258.000000C602.000000 -104.000000,579.000000 -31.000000,407.000000 -31.000000L274.000000 -31.000000C227.000000 -31.000000,225.000000 -38.000000,225.000000 -71.000000L225.000000 -338.000000L315.000000 -338.000000C412.000000 -338.000000,423.000000 -306.000000,423.000000 -221.000000L448.000000 -221.000000L448.000000 -486.000000L423.000000 -486.000000C423.000000 -400.000000,412.000000 -369.000000,315.000000 -369.000000L225.000000 -369.000000L225.000000 -609.000000C225.000000 -642.000000,227.000000 -649.000000,274.000000 -649.000000L403.000000 -649.000000C556.000000 -649.000000,583.000000 -594.000000,599.000000 -455.000000L624.000000 -455.000000L596.000000 -680.000000L33.000000 -680.000000L33.000000 -649.000000L57.000000 -649.000000C134.000000 -649.000000,136.000000 -638.000000,136.000000 -602.000000"></path>
    </g>
    <g transform="scale(0.009963,0.009963)" id="GLYPHcmr10_70">
      <path style="fill-rule: evenodd;" d="M582.000000 -680.000000L33.000000 -680.000000L33.000000 -649.000000L57.000000 -649.000000C134.000000 -649.000000,136.000000 -638.000000,136.000000 -602.000000L136.000000 -78.000000C136.000000 -42.000000,134.000000 -31.000000,57.000000 -31.000000L33.000000 -31.000000L33.000000 -0.000000C68.000000 -3.000000,146.000000 -3.000000,185.000000 -3.000000C226.000000 -3.000000,317.000000 -3.000000,353.000000 -0.000000L353.000000 -31.000000L320.000000 -31.000000C225.000000 -31.000000,225.000000 -44.000000,225.000000 -79.000000L225.000000 -325.000000L311.000000 -325.000000C407.000000 -325.000000,417.000000 -293.000000,417.000000 -208.000000L442.000000 -208.000000L442.000000 -473.000000L417.000000 -473.000000C417.000000 -389.000000,407.000000 -356.000000,311.000000 -356.000000L225.000000 -356.000000L225.000000 -609.000000C225.000000 -642.000000,227.000000 -649.000000,274.000000 -649.000000L394.000000 -649.000000C544.000000 -649.000000,569.000000 -593.000000,585.000000 -455.000000L610.000000 -455.000000"></path>
    </g>
    <g transform="scale(0.009963,0.009963)" id="GLYPHcmr10_71">
      <path style="fill-rule: evenodd;" d="M593.000000 -63.000000C606.000000 -41.000000,646.000000 -1.000000,657.000000 -1.000000C666.000000 -1.000000,666.000000 -9.000000,666.000000 -24.000000L666.000000 -198.000000C666.000000 -237.000000,670.000000 -242.000000,735.000000 -242.000000L735.000000 -273.000000C698.000000 -272.000000,643.000000 -270.000000,613.000000 -270.000000C573.000000 -270.000000,488.000000 -270.000000,452.000000 -273.000000L452.000000 -242.000000L484.000000 -242.000000C574.000000 -242.000000,577.000000 -231.000000,577.000000 -194.000000L577.000000 -130.000000C577.000000 -18.000000,450.000000 -9.000000,422.000000 -9.000000C357.000000 -9.000000,159.000000 -44.000000,159.000000 -342.000000C159.000000 -641.000000,356.000000 -674.000000,416.000000 -674.000000C523.000000 -674.000000,614.000000 -584.000000,634.000000 -437.000000C636.000000 -423.000000,636.000000 -420.000000,650.000000 -420.000000C666.000000 -420.000000,666.000000 -423.000000,666.000000 -444.000000L666.000000 -681.000000C666.000000 -698.000000,666.000000 -705.000000,655.000000 -705.000000C651.000000 -705.000000,647.000000 -705.000000,639.000000 -693.000000L589.000000 -619.000000C557.000000 -651.000000,503.000000 -705.000000,404.000000 -705.000000C218.000000 -705.000000,56.000000 -547.000000,56.000000 -342.000000C56.000000 -137.000000,216.000000 22.000000,406.000000 22.000000C479.000000 22.000000,559.000000 -4.000000,593.000000 -63.000000"></path>
    </g>
    <g transform="scale(0.009963,0.009963)" id="GLYPHcmr10_72">
      <path style="fill-rule: evenodd;" d="M613.000000 -605.000000C613.000000 -641.000000,615.000000 -652.000000,692.000000 -652.000000L716.000000 -652.000000L716.000000 -683.000000C681.000000 -680.000000,607.000000 -680.000000,569.000000 -680.000000C531.000000 -680.000000,456.000000 -680.000000,421.000000 -683.000000L421.000000 -652.000000L445.000000 -652.000000C522.000000 -652.000000,524.000000 -641.000000,524.000000 -605.000000L524.000000 -371.000000L225.000000 -371.000000L225.000000 -605.000000C225.000000 -641.000000,227.000000 -652.000000,304.000000 -652.000000L328.000000 -652.000000L328.000000 -683.000000C293.000000 -680.000000,219.000000 -680.000000,181.000000 -680.000000C143.000000 -680.000000,68.000000 -680.000000,33.000000 -683.000000L33.000000 -652.000000L57.000000 -652.000000C134.000000 -652.000000,136.000000 -641.000000,136.000000 -605.000000L136.000000 -78.000000C136.000000 -42.000000,134.000000 -31.000000,57.000000 -31.000000L33.000000 -31.000000L33.000000 -0.000000C68.000000 -3.000000,142.000000 -3.000000,180.000000 -3.000000C218.000000 -3.000000,293.000000 -3.000000,328.000000 -0.000000L328.000000 -31.000000L304.000000 -31.000000C227.000000 -31.000000,225.000000 -42.000000,225.000000 -78.000000L225.000000 -340.000000L524.000000 -340.000000L524.000000 -78.000000C524.000000 -42.000000,522.000000 -31.000000,445.000000 -31.000000L421.000000 -31.000000L421.000000 -0.000000C456.000000 -3.000000,530.000000 -3.000000,568.000000 -3.000000C606.000000 -3.000000,681.000000 -3.000000,716.000000 -0.000000L716.000000 -31.000000L692.000000 -31.000000C615.000000 -31.000000,613.000000 -42.000000,613.000000 -78.000000"></path>
    </g>
    <g transform="scale(0.009963,0.009963)" id="GLYPHcmr10_75">
      <path style="fill-rule: evenodd;" d="M400.000000 -419.000000L580.000000 -592.000000C588.000000 -600.000000,641.000000 -651.000000,722.000000 -652.000000L722.000000 -683.000000C696.000000 -680.000000,664.000000 -680.000000,637.000000 -680.000000C601.000000 -680.000000,544.000000 -680.000000,510.000000 -683.000000L510.000000 -652.000000C550.000000 -651.000000,556.000000 -628.000000,556.000000 -619.000000C556.000000 -603.000000,546.000000 -593.000000,538.000000 -586.000000L225.000000 -287.000000L225.000000 -605.000000C225.000000 -641.000000,227.000000 -652.000000,304.000000 -652.000000L328.000000 -652.000000L328.000000 -683.000000C293.000000 -680.000000,219.000000 -680.000000,181.000000 -680.000000C143.000000 -680.000000,68.000000 -680.000000,33.000000 -683.000000L33.000000 -652.000000L57.000000 -652.000000C134.000000 -652.000000,136.000000 -641.000000,136.000000 -605.000000L136.000000 -78.000000C136.000000 -42.000000,134.000000 -31.000000,57.000000 -31.000000L33.000000 -31.000000L33.000000 -0.000000C68.000000 -3.000000,142.000000 -3.000000,180.000000 -3.000000C218.000000 -3.000000,293.000000 -3.000000,328.000000 -0.000000L328.000000 -31.000000L304.000000 -31.000000C227.000000 -31.000000,225.000000 -42.000000,225.000000 -78.000000L225.000000 -253.000000L341.000000 -363.000000L522.000000 -95.000000C528.000000 -86.000000,537.000000 -73.000000,537.000000 -61.000000C537.000000 -31.000000,498.000000 -31.000000,478.000000 -31.000000L478.000000 -0.000000C513.000000 -3.000000,583.000000 -3.000000,621.000000 -3.000000C656.000000 -3.000000,694.000000 -2.000000,736.000000 -0.000000L736.000000 -31.000000C682.000000 -31.000000,661.000000 -35.000000,631.000000 -79.000000"></path>
    </g>
    <g transform="scale(0.009963,0.009963)" id="GLYPHcmr10_76">
      <path style="fill-rule: evenodd;" d="M582.000000 -258.000000L557.000000 -258.000000C546.000000 -156.000000,532.000000 -31.000000,356.000000 -31.000000L274.000000 -31.000000C227.000000 -31.000000,225.000000 -38.000000,225.000000 -71.000000L225.000000 -604.000000C225.000000 -638.000000,225.000000 -652.000000,320.000000 -652.000000L353.000000 -652.000000L353.000000 -683.000000C317.000000 -680.000000,226.000000 -680.000000,185.000000 -680.000000C146.000000 -680.000000,68.000000 -680.000000,33.000000 -683.000000L33.000000 -652.000000L57.000000 -652.000000C134.000000 -652.000000,136.000000 -641.000000,136.000000 -605.000000L136.000000 -78.000000C136.000000 -42.000000,134.000000 -31.000000,57.000000 -31.000000L33.000000 -31.000000L33.000000 -0.000000L554.000000 -0.000000"></path>
    </g>
    <g transform="scale(0.009963,0.009963)" id="GLYPHcmr10_77">
      <path style="fill-rule: evenodd;" d="M241.000000 -661.000000C232.000000 -683.000000,229.000000 -683.000000,206.000000 -683.000000L37.000000 -683.000000L37.000000 -652.000000L61.000000 -652.000000C138.000000 -652.000000,140.000000 -641.000000,140.000000 -605.000000L140.000000 -105.000000C140.000000 -78.000000,140.000000 -31.000000,37.000000 -31.000000L37.000000 -0.000000C72.000000 -1.000000,121.000000 -3.000000,154.000000 -3.000000C187.000000 -3.000000,236.000000 -1.000000,271.000000 -0.000000L271.000000 -31.000000C168.000000 -31.000000,168.000000 -78.000000,168.000000 -105.000000L168.000000 -644.000000L169.000000 -644.000000L410.000000 -22.000000C415.000000 -9.000000,420.000000 -0.000000,430.000000 -0.000000C441.000000 -0.000000,444.000000 -8.000000,448.000000 -19.000000L694.000000 -652.000000L695.000000 -652.000000L695.000000 -78.000000C695.000000 -42.000000,693.000000 -31.000000,616.000000 -31.000000L592.000000 -31.000000L592.000000 -0.000000C629.000000 -3.000000,697.000000 -3.000000,736.000000 -3.000000C775.000000 -3.000000,842.000000 -3.000000,879.000000 -0.000000L879.000000 -31.000000L855.000000 -31.000000C778.000000 -31.000000,776.000000 -42.000000,776.000000 -78.000000L776.000000 -605.000000C776.000000 -641.000000,778.000000 -652.000000,855.000000 -652.000000L879.000000 -652.000000L879.000000 -683.000000L710.000000 -683.000000C684.000000 -683.000000,684.000000 -682.000000,677.000000 -664.000000L458.000000 -101.000000"></path>
    </g>
    <g transform="scale(0.009963,0.009963)" id="GLYPHcmr10_78">
      <path style="fill-rule: evenodd;" d="M232.000000 -670.000000C223.000000 -682.000000,222.000000 -683.000000,203.000000 -683.000000L33.000000 -683.000000L33.000000 -652.000000L62.000000 -652.000000C77.000000 -652.000000,97.000000 -651.000000,112.000000 -650.000000C135.000000 -647.000000,136.000000 -646.000000,136.000000 -627.000000L136.000000 -105.000000C136.000000 -78.000000,136.000000 -31.000000,33.000000 -31.000000L33.000000 -0.000000C68.000000 -1.000000,117.000000 -3.000000,150.000000 -3.000000C183.000000 -3.000000,232.000000 -1.000000,267.000000 -0.000000L267.000000 -31.000000C164.000000 -31.000000,164.000000 -78.000000,164.000000 -105.000000L164.000000 -625.000000C169.000000 -620.000000,170.000000 -619.000000,174.000000 -613.000000L582.000000 -13.000000C591.000000 -1.000000,592.000000 -0.000000,599.000000 -0.000000C613.000000 -0.000000,613.000000 -7.000000,613.000000 -26.000000L613.000000 -578.000000C613.000000 -605.000000,613.000000 -652.000000,716.000000 -652.000000L716.000000 -683.000000C681.000000 -682.000000,632.000000 -680.000000,599.000000 -680.000000C566.000000 -680.000000,517.000000 -682.000000,482.000000 -683.000000L482.000000 -652.000000C585.000000 -652.000000,585.000000 -605.000000,585.000000 -578.000000L585.000000 -151.000000"></path>
    </g>
    <g transform="scale(0.009963,0.009963)" id="GLYPHcmr10_82">
      <path style="fill-rule: evenodd;" d="M224.000000 -353.000000L224.000000 -612.000000C224.000000 -635.000000,224.000000 -647.000000,246.000000 -650.000000C256.000000 -652.000000,285.000000 -652.000000,305.000000 -652.000000C395.000000 -652.000000,507.000000 -648.000000,507.000000 -503.000000C507.000000 -434.000000,483.000000 -353.000000,335.000000 -353.000000M435.000000 -340.000000C532.000000 -364.000000,610.000000 -425.000000,610.000000 -503.000000C610.000000 -599.000000,496.000000 -683.000000,349.000000 -683.000000L35.000000 -683.000000L35.000000 -652.000000L59.000000 -652.000000C136.000000 -652.000000,138.000000 -641.000000,138.000000 -605.000000L138.000000 -78.000000C138.000000 -42.000000,136.000000 -31.000000,59.000000 -31.000000L35.000000 -31.000000L35.000000 -0.000000C71.000000 -3.000000,142.000000 -3.000000,181.000000 -3.000000C220.000000 -3.000000,291.000000 -3.000000,327.000000 -0.000000L327.000000 -31.000000L303.000000 -31.000000C226.000000 -31.000000,224.000000 -42.000000,224.000000 -78.000000L224.000000 -331.000000L339.000000 -331.000000C355.000000 -331.000000,397.000000 -331.000000,432.000000 -297.000000C470.000000 -261.000000,470.000000 -230.000000,470.000000 -163.000000C470.000000 -98.000000,470.000000 -58.000000,511.000000 -20.000000C552.000000 16.000000,607.000000 22.000000,637.000000 22.000000C715.000000 22.000000,732.000000 -60.000000,732.000000 -88.000000C732.000000 -94.000000,732.000000 -105.000000,719.000000 -105.000000C708.000000 -105.000000,708.000000 -96.000000,707.000000 -89.000000C701.000000 -18.000000,666.000000 -0.000000,641.000000 -0.000000C592.000000 -0.000000,584.000000 -51.000000,570.000000 -144.000000L557.000000 -224.000000C539.000000 -288.000000,490.000000 -321.000000,435.000000 -340.000000"></path>
    </g>
    <g transform="scale(0.009963,0.009963)" id="GLYPHcmr10_83">
      <path style="fill-rule: evenodd;" d="M349.000000 -388.000000L221.000000 -419.000000C159.000000 -434.000000,120.000000 -488.000000,120.000000 -546.000000C120.000000 -616.000000,174.000000 -677.000000,252.000000 -677.000000C419.000000 -677.000000,441.000000 -513.000000,447.000000 -468.000000C448.000000 -462.000000,448.000000 -456.000000,459.000000 -456.000000C472.000000 -456.000000,472.000000 -461.000000,472.000000 -480.000000L472.000000 -681.000000C472.000000 -698.000000,472.000000 -705.000000,461.000000 -705.000000C454.000000 -705.000000,453.000000 -704.000000,446.000000 -692.000000L411.000000 -635.000000C381.000000 -664.000000,340.000000 -705.000000,251.000000 -705.000000C140.000000 -705.000000,56.000000 -617.000000,56.000000 -511.000000C56.000000 -428.000000,109.000000 -355.000000,187.000000 -328.000000C198.000000 -324.000000,249.000000 -312.000000,319.000000 -295.000000C346.000000 -288.000000,376.000000 -281.000000,404.000000 -244.000000C425.000000 -218.000000,435.000000 -185.000000,435.000000 -152.000000C435.000000 -81.000000,385.000000 -9.000000,301.000000 -9.000000C272.000000 -9.000000,196.000000 -14.000000,143.000000 -63.000000C85.000000 -117.000000,82.000000 -181.000000,81.000000 -217.000000C80.000000 -227.000000,72.000000 -227.000000,69.000000 -227.000000C56.000000 -227.000000,56.000000 -220.000000,56.000000 -202.000000L56.000000 -2.000000C56.000000 15.000000,56.000000 22.000000,67.000000 22.000000C74.000000 22.000000,75.000000 20.000000,82.000000 9.000000C82.000000 8.000000,85.000000 5.000000,118.000000 -48.000000C149.000000 -14.000000,213.000000 22.000000,302.000000 22.000000C419.000000 22.000000,499.000000 -76.000000,499.000000 -186.000000C499.000000 -286.000000,433.000000 -368.000000,349.000000 -388.000000"></path>
    </g>
    <g transform="scale(0.009963,0.009963)" id="GLYPHcmr10_84">
      <path style="fill-rule: evenodd;" d="M666.000000 -677.000000L55.000000 -677.000000L36.000000 -452.000000L61.000000 -452.000000C75.000000 -613.000000,90.000000 -646.000000,241.000000 -646.000000C259.000000 -646.000000,285.000000 -646.000000,295.000000 -644.000000C316.000000 -640.000000,316.000000 -629.000000,316.000000 -606.000000L316.000000 -79.000000C316.000000 -45.000000,316.000000 -31.000000,211.000000 -31.000000L171.000000 -31.000000L171.000000 -0.000000C212.000000 -3.000000,314.000000 -3.000000,360.000000 -3.000000C406.000000 -3.000000,509.000000 -3.000000,550.000000 -0.000000L550.000000 -31.000000L510.000000 -31.000000C405.000000 -31.000000,405.000000 -45.000000,405.000000 -79.000000L405.000000 -606.000000C405.000000 -626.000000,405.000000 -640.000000,423.000000 -644.000000C434.000000 -646.000000,461.000000 -646.000000,480.000000 -646.000000C631.000000 -646.000000,646.000000 -613.000000,660.000000 -452.000000L685.000000 -452.000000"></path>
    </g>
    <g transform="scale(0.009963,0.009963)" id="GLYPHcmr10_86">
      <path style="fill-rule: evenodd;" d="M621.000000 -585.000000C635.000000 -622.000000,662.000000 -651.000000,730.000000 -652.000000L730.000000 -683.000000C699.000000 -681.000000,659.000000 -680.000000,633.000000 -680.000000C603.000000 -680.000000,545.000000 -682.000000,519.000000 -683.000000L519.000000 -652.000000C571.000000 -651.000000,592.000000 -625.000000,592.000000 -602.000000C592.000000 -594.000000,589.000000 -588.000000,587.000000 -582.000000L404.000000 -100.000000L213.000000 -605.000000C207.000000 -619.000000,207.000000 -621.000000,207.000000 -623.000000C207.000000 -652.000000,264.000000 -652.000000,289.000000 -652.000000L289.000000 -683.000000C253.000000 -680.000000,184.000000 -680.000000,146.000000 -680.000000C98.000000 -680.000000,55.000000 -682.000000,19.000000 -683.000000L19.000000 -652.000000C84.000000 -652.000000,103.000000 -652.000000,117.000000 -614.000000L349.000000 -0.000000C356.000000 19.000000,361.000000 22.000000,374.000000 22.000000C391.000000 22.000000,393.000000 17.000000,398.000000 3.000000"></path>
    </g>
    <g transform="scale(0.009963,0.009963)" id="GLYPHcmr10_89">
      <path style="fill-rule: evenodd;" d="M610.000000 -587.000000C647.000000 -648.000000,706.000000 -652.000000,738.000000 -652.000000L738.000000 -683.000000C707.000000 -681.000000,667.000000 -680.000000,640.000000 -680.000000C609.000000 -680.000000,551.000000 -682.000000,525.000000 -683.000000L525.000000 -652.000000C566.000000 -652.000000,582.000000 -633.000000,582.000000 -613.000000C582.000000 -602.000000,576.000000 -589.000000,572.000000 -583.000000L407.000000 -315.000000L226.000000 -610.000000C219.000000 -620.000000,219.000000 -622.000000,219.000000 -627.000000C219.000000 -648.000000,244.000000 -652.000000,289.000000 -652.000000L289.000000 -683.000000C253.000000 -680.000000,180.000000 -680.000000,141.000000 -680.000000C99.000000 -680.000000,53.000000 -681.000000,11.000000 -683.000000L11.000000 -652.000000L29.000000 -652.000000C97.000000 -652.000000,105.000000 -641.000000,121.000000 -615.000000L331.000000 -273.000000L331.000000 -78.000000C331.000000 -42.000000,329.000000 -31.000000,252.000000 -31.000000L228.000000 -31.000000L228.000000 -0.000000C264.000000 -3.000000,335.000000 -3.000000,374.000000 -3.000000C413.000000 -3.000000,484.000000 -3.000000,520.000000 -0.000000L520.000000 -31.000000L497.000000 -31.000000C420.000000 -31.000000,417.000000 -41.000000,417.000000 -80.000000L417.000000 -273.000000"></path>
    </g>
    <g transform="scale(0.009963,0.009963)" id="GLYPHcmr10_90">
      <path style="fill-rule: evenodd;" d="M547.000000 -648.000000C554.000000 -659.000000,554.000000 -660.000000,554.000000 -667.000000C554.000000 -683.000000,548.000000 -683.000000,528.000000 -683.000000L80.000000 -683.000000L69.000000 -458.000000L94.000000 -458.000000C101.000000 -571.000000,131.000000 -652.000000,295.000000 -652.000000L452.000000 -652.000000L63.000000 -37.000000C56.000000 -26.000000,56.000000 -25.000000,56.000000 -17.000000C56.000000 -0.000000,61.000000 -0.000000,82.000000 -0.000000L543.000000 -0.000000L560.000000 -267.000000L535.000000 -267.000000C527.000000 -128.000000,508.000000 -34.000000,323.000000 -34.000000L159.000000 -34.000000"></path>
    </g>
  </defs>
  <path d="M11.892155 122.712300L147.431380 164.150800L147.431380 97.849200L128.893688 70.365942L110.355996 42.882683L48.882224 18.045667L39.000000 131.000000L53.173225 145.173225" style="stroke:rgb(0.000000%,0.000000%,0.000000%); stroke-width: 0.500000;stroke-linecap: round;stroke-linejoin: round;stroke-miterlimit: 10.000000;fill: none;"></path>
  <path d="M10.653550 145.173225L67.346450 145.173225" style="stroke:rgb(0.000000%,0.000000%,0.000000%); stroke-width: 0.500000;stroke-linecap: round;stroke-linejoin: round;stroke-miterlimit: 10.000000;fill: none;"></path>
  <path d="M10.653550 131.000000L166.559025 131.000000" style="stroke:rgb(0.000000%,0.000000%,0.000000%); stroke-width: 0.500000;stroke-linecap: round;stroke-linejoin: round;stroke-miterlimit: 10.000000;fill: none;"></path>
  <path d="M76.294650 9.014698L39.000000 131.000000L39.000000 145.173225" style="stroke:rgb(0.000000%,0.000000%,0.000000%); stroke-width: 0.500000;stroke-linecap: round;stroke-linejoin: round;stroke-miterlimit: 10.000000;fill: none;"></path>
  <path d="M39.000000 131.000000L147.431380 97.849200" style="stroke:rgb(0.000000%,0.000000%,0.000000%); stroke-width: 0.500000;stroke-linecap: round;stroke-linejoin: round;stroke-miterlimit: 10.000000;fill: none;"></path>
  <path d="M39.000000 131.000000L128.893688 70.365942" style="stroke:rgb(0.000000%,0.000000%,0.000000%); stroke-width: 0.500000;stroke-linecap: round;stroke-linejoin: round;stroke-miterlimit: 10.000000;fill: none;"></path>
  <path d="M39.000000 131.000000L110.355996 42.882683" style="stroke:rgb(0.000000%,0.000000%,0.000000%); stroke-width: 0.500000;stroke-linecap: round;stroke-linejoin: round;stroke-miterlimit: 10.000000;fill: none;"></path>
  <path d="M39.000000 131.000000L79.619110 30.464175" style="stroke:rgb(0.000000%,0.000000%,0.000000%); stroke-width: 0.500000;stroke-linecap: round;stroke-linejoin: round;stroke-miterlimit: 10.000000;fill: none;"></path>
  <path d="M147.431380 164.150800L70.823365 26.910464" style="stroke:rgb(0.000000%,0.000000%,0.000000%); stroke-width: 0.500000;stroke-linecap: round;stroke-linejoin: round;stroke-miterlimit: 10.000000;fill: none;"></path>
  <path d="M82.372552 144.260320l0 0" style="stroke:rgb(0.000000%,0.000000%,0.000000%); stroke-width: 3.000000;stroke-linecap: round;stroke-linejoin: round;stroke-miterlimit: 10.000000;fill: none;"></path>
  <path d="M104.058828 150.890480l0 0" style="stroke:rgb(0.000000%,0.000000%,0.000000%); stroke-width: 3.000000;stroke-linecap: round;stroke-linejoin: round;stroke-miterlimit: 10.000000;fill: none;"></path>
  <path d="M125.745104 157.520640l0 0" style="stroke:rgb(0.000000%,0.000000%,0.000000%); stroke-width: 3.000000;stroke-linecap: round;stroke-linejoin: round;stroke-miterlimit: 10.000000;fill: none;"></path>
  <g transform="translate(1.420155 126.116200)" style="fill: rgb(0.000000%,0.000000%,0.000000%);">
    <use xlink:href="#GLYPHcmr10_65"></use>
  </g>
  <g transform="translate(62.579395 136.287700)" style="fill: rgb(0.000000%,0.000000%,0.000000%);">
    <use xlink:href="#GLYPHcmr10_66"></use>
  </g>
  <path d="M66.107845 139.287700l0 0" style="stroke:rgb(0.000000%,0.000000%,0.000000%); stroke-width: 3.000000;stroke-linecap: round;stroke-linejoin: round;stroke-miterlimit: 10.000000;fill: none;"></path>
  <g transform="translate(0.458283 148.577125)" style="fill: rgb(0.000000%,0.000000%,0.000000%);">
    <use xlink:href="#GLYPHcmr10_67"></use>
  </g>
  <g transform="translate(63.541267 154.981025)" style="fill: rgb(0.000000%,0.000000%,0.000000%);">
    <use xlink:href="#GLYPHcmr10_68"></use>
  </g>
  <g transform="translate(30.119849 128.900000)" style="fill: rgb(0.000000%,0.000000%,0.000000%);">
    <use xlink:href="#GLYPHcmr10_69"></use>
  </g>
  <g transform="translate(49.921516 154.981025)" style="fill: rgb(0.000000%,0.000000%,0.000000%);">
    <use xlink:href="#GLYPHcmr10_70"></use>
  </g>
  <g transform="translate(-0.164382 134.403900)" style="fill: rgb(0.000000%,0.000000%,0.000000%);">
    <use xlink:href="#GLYPHcmr10_71"></use>
  </g>
  <g transform="translate(169.559025 134.403900)" style="fill: rgb(0.000000%,0.000000%,0.000000%);">
    <use xlink:href="#GLYPHcmr10_72"></use>
  </g>
  <g transform="translate(72.420275 6.014698)" style="fill: rgb(0.000000%,0.000000%,0.000000%);">
    <use xlink:href="#GLYPHcmr10_75"></use>
  </g>
  <g transform="translate(35.886665 154.981025)" style="fill: rgb(0.000000%,0.000000%,0.000000%);">
    <use xlink:href="#GLYPHcmr10_76"></use>
  </g>
  <g transform="translate(150.431380 167.554700)" style="fill: rgb(0.000000%,0.000000%,0.000000%);">
    <use xlink:href="#GLYPHcmr10_77"></use>
  </g>
  <g transform="translate(137.859380 128.900000)" style="fill: rgb(0.000000%,0.000000%,0.000000%);">
    <use xlink:href="#GLYPHcmr10_78"></use>
  </g>
  <g transform="translate(150.431380 101.253101)" style="fill: rgb(0.000000%,0.000000%,0.000000%);">
    <use xlink:href="#GLYPHcmr10_82"></use>
  </g>
  <g transform="translate(131.893688 73.769842)" style="fill: rgb(0.000000%,0.000000%,0.000000%);">
    <use xlink:href="#GLYPHcmr10_83"></use>
  </g>
  <g transform="translate(106.758363 39.882683)" style="fill: rgb(0.000000%,0.000000%,0.000000%);">
    <use xlink:href="#GLYPHcmr10_84"></use>
  </g>
  <g transform="translate(61.251365 35.818264)" style="fill: rgb(0.000000%,0.000000%,0.000000%);">
    <use xlink:href="#GLYPHcmr10_86"></use>
  </g>
  <g transform="translate(75.883110 27.464175)" style="fill: rgb(0.000000%,0.000000%,0.000000%);">
    <use xlink:href="#GLYPHcmr10_89"></use>
  </g>
  <g transform="translate(45.838080 15.045667)" style="fill: rgb(0.000000%,0.000000%,0.000000%);">
    <use xlink:href="#GLYPHcmr10_90"></use>
  </g>
</svg>
